<svg width="130" height="32" viewBox="0 0 130 32" fill="none" xmlns="http://www.w3.org/2000/svg">
<path d="M69.6689 6.35098C69.6664 6.9379 69.4902 7.51094 69.1623 7.99775C68.8345 8.48457 68.3697 8.86334 67.8268 9.08625C67.2838 9.30916 66.687 9.36622 66.1117 9.25022C65.5363 9.13422 65.0083 8.85036 64.5941 8.43449C64.18 8.01861 63.8983 7.48935 63.7847 6.91353C63.6711 6.33771 63.7306 5.74113 63.9558 5.19912C64.181 4.65711 64.5617 4.19396 65.0498 3.86813C65.538 3.54231 66.1118 3.36841 66.6987 3.36841C67.0896 3.36922 67.4764 3.44701 67.8372 3.59734C68.198 3.74767 68.5257 3.96759 68.8015 4.24455C69.0773 4.5215 69.2959 4.85007 69.4447 5.2115C69.5935 5.57292 69.6697 5.96012 69.6689 6.35098" fill="#F4D400"/>
<path d="M77.3549 6.35098C77.3525 6.9379 77.1762 7.51094 76.8483 7.99775C76.5205 8.48457 76.0558 8.86334 75.5128 9.08625C74.9699 9.30916 74.3731 9.36622 73.7977 9.25022C73.2224 9.13422 72.6943 8.85036 72.2801 8.43449C71.866 8.01861 71.5843 7.48935 71.4707 6.91353C71.3571 6.33771 71.4167 5.74113 71.6418 5.19912C71.867 4.65711 72.2477 4.19396 72.7359 3.86813C73.224 3.54231 73.7978 3.36841 74.3847 3.36841C74.7756 3.36922 75.1625 3.44701 75.5233 3.59734C75.8841 3.74767 76.2117 3.96759 76.4875 4.24455C76.7633 4.5215 76.9819 4.85007 77.1307 5.2115C77.2796 5.57292 77.3557 5.96012 77.3549 6.35098" fill="#F4D400"/>
<path d="M48.9087 16.4624L52.6549 11.909C52.926 11.5824 52.772 11.2127 52.3653 11.2127H49.5556C49.4077 11.2145 49.2621 11.2499 49.1298 11.316C48.9975 11.3822 48.8818 11.4775 48.7916 11.5947L46.2284 14.8665V11.7857C46.2408 11.7019 46.2335 11.6164 46.2069 11.5359C46.1804 11.4555 46.1354 11.3824 46.0755 11.3225C46.0156 11.2626 45.9424 11.2175 45.862 11.191C45.7815 11.1644 45.696 11.1571 45.6122 11.1696H43.5542C43.4702 11.1557 43.384 11.1621 43.303 11.1881C43.2219 11.2142 43.1481 11.2592 43.0879 11.3194C43.0277 11.3797 42.9827 11.4534 42.9566 11.5345C42.9306 11.6155 42.9242 11.7017 42.9381 11.7857V22.3591C42.9242 22.4431 42.9306 22.5292 42.9566 22.6103C42.9827 22.6914 43.0277 22.7651 43.0879 22.8254C43.1481 22.8856 43.2219 22.9306 43.303 22.9567C43.384 22.9827 43.4702 22.9891 43.5542 22.9752H45.6245C45.7086 22.9891 45.7947 22.9827 45.8758 22.9567C45.9569 22.9306 46.0306 22.8856 46.0908 22.8254C46.1511 22.7651 46.1961 22.6914 46.2221 22.6103C46.2482 22.5292 46.2545 22.4431 46.2407 22.3591V18.2739L49.6973 22.587C49.7734 22.7047 49.876 22.8027 49.997 22.8734C50.1179 22.944 50.2538 22.9852 50.3936 22.9937H53.3142C53.3926 22.9933 53.4692 22.9705 53.5351 22.9282C53.601 22.8858 53.6535 22.8256 53.6864 22.7545C53.7194 22.6835 53.7314 22.6045 53.7211 22.5268C53.7109 22.4492 53.6787 22.376 53.6285 22.3159L48.9087 16.4624Z" fill="#0087E6"/>
<path d="M106.921 11.1624H98.1279C97.995 11.1624 97.8675 11.2152 97.7735 11.3092C97.6795 11.4032 97.6267 11.5307 97.6267 11.6636V13.947C97.6267 14.0799 97.6795 14.2074 97.7735 14.3014C97.8675 14.3954 97.995 14.4482 98.1279 14.4482H100.9V22.4925C100.9 22.6254 100.953 22.7529 101.047 22.8469C101.141 22.9409 101.268 22.9937 101.401 22.9937H103.666C103.799 22.9937 103.927 22.9409 104.021 22.8469C104.115 22.7529 104.167 22.6254 104.167 22.4925V14.4482H106.909C107.042 14.4482 107.169 14.3954 107.263 14.3014C107.357 14.2074 107.41 14.0799 107.41 13.947V11.6636C107.41 11.5307 107.357 11.4032 107.263 11.3092C107.169 11.2152 107.042 11.1624 106.909 11.1624" fill="#0087E6"/>
<path d="M80.9666 20.3571H78.1375V18.1423H80.9666C82.6976 18.1423 82.8278 20.3571 80.9666 20.3571ZM78.1375 13.8056H80.2717C80.5186 13.8056 80.7553 13.9036 80.9298 14.0781C81.1043 14.2527 81.2024 14.4894 81.2024 14.7362C81.2024 14.983 81.1043 15.2197 80.9298 15.3942C80.7553 15.5688 80.5186 15.6668 80.2717 15.6668H78.1375V13.8056ZM83.4855 16.5354C85.5763 14.5252 84.1803 11.1626 80.9666 11.1626H75.4449C75.3116 11.1626 75.1838 11.2155 75.0896 11.3098C74.9953 11.404 74.9424 11.5319 74.9424 11.6651V22.4914C74.9424 22.6246 74.9953 22.7525 75.0896 22.8467C75.1838 22.9409 75.3116 22.9939 75.4449 22.9939H81.5064C85.7128 22.9939 86.8357 18.1423 83.4855 16.5354" fill="#0087E6"/>
<path d="M72.3521 11.6651C72.3521 11.5319 72.2992 11.404 72.2049 11.3098C72.1107 11.2155 71.9829 11.1626 71.8496 11.1626H69.2376C69.1044 11.1626 68.9765 11.2155 68.8823 11.3098C68.7881 11.404 68.7351 11.5319 68.7351 11.6651V22.4914C68.7351 22.6246 68.7881 22.7525 68.8823 22.8467C68.9765 22.9409 69.1044 22.9939 69.2376 22.9939H71.8496C71.9829 22.9939 72.1107 22.9409 72.2049 22.8467C72.2992 22.7525 72.3521 22.6246 72.3521 22.4914V11.6651Z" fill="#0087E6"/>
<path d="M124.945 16.6137H123.173V13.8881H124.901C126.066 13.8881 126.469 14.4332 126.469 15.2199C126.469 15.8951 126.159 16.5951 124.945 16.5951V16.6137ZM125.193 11.1626H120.373C120.24 11.1626 120.113 11.2155 120.019 11.3096C119.924 11.4037 119.872 11.5313 119.872 11.6643V22.4921C119.872 22.6252 119.924 22.7528 120.019 22.8469C120.113 22.941 120.24 22.9939 120.373 22.9939H122.659C122.792 22.9939 122.92 22.941 123.014 22.8469C123.108 22.7528 123.161 22.6252 123.161 22.4921V19.2958H125.019C127.67 19.2958 129.683 17.9021 129.683 15.2633C129.683 12.7855 127.621 11.1812 125.155 11.1812" fill="#0087E6"/>
<path d="M111.295 18.3293L112.593 14.4605L113.891 18.3293H111.295ZM118.798 22.3711L114.793 11.6177C114.755 11.4763 114.667 11.3532 114.546 11.2706C114.425 11.1879 114.278 11.1511 114.132 11.1665H111.085C110.939 11.1495 110.79 11.1856 110.668 11.2684C110.546 11.3512 110.457 11.4751 110.418 11.6177L106.401 22.3711C106.36 22.4368 106.339 22.5127 106.34 22.5899C106.341 22.6671 106.364 22.7424 106.406 22.8071C106.448 22.8719 106.508 22.9233 106.578 22.9555C106.648 22.9877 106.726 22.9994 106.803 22.9891H109.361C109.469 22.9833 109.573 22.9464 109.661 22.8828C109.749 22.8192 109.816 22.7317 109.856 22.6307L110.381 21.0547H114.793L115.313 22.6307C115.352 22.7317 115.419 22.8192 115.507 22.8828C115.595 22.9464 115.699 22.9833 115.807 22.9891H118.366C118.443 23.0008 118.521 22.9902 118.592 22.9585C118.664 22.9269 118.724 22.8755 118.767 22.8105C118.81 22.7455 118.833 22.6696 118.834 22.5917C118.836 22.5139 118.814 22.4373 118.773 22.3711" fill="#0087E6"/>
<path d="M66.2272 22.4914V11.6651C66.2272 11.5319 66.1742 11.404 66.08 11.3098C65.9857 11.2155 65.8579 11.1626 65.7246 11.1626H63.243C63.1505 11.1637 63.0597 11.1874 62.9786 11.2318C62.8975 11.2761 62.8285 11.3397 62.7777 11.417L58.1246 17.7576V11.6651C58.1246 11.5319 58.0716 11.404 57.9774 11.3098C57.8831 11.2155 57.7553 11.1626 57.622 11.1626H55.3265C55.1932 11.1626 55.0654 11.2155 54.9712 11.3098C54.8769 11.404 54.824 11.5319 54.824 11.6651V22.4914C54.824 22.6246 54.8769 22.7525 54.9712 22.8467C55.0654 22.9409 55.1932 22.9939 55.3265 22.9939H57.8454C57.9368 22.9918 58.0263 22.9676 58.1063 22.9233C58.1863 22.879 58.2543 22.8159 58.3045 22.7395L62.9576 16.3989V22.4914C62.9576 22.6246 63.0105 22.7525 63.1048 22.8467C63.199 22.9409 63.3269 22.9939 63.4601 22.9939H65.7495C65.8833 22.9939 66.0118 22.9412 66.107 22.8471C66.2022 22.753 66.2566 22.6252 66.2582 22.4914H66.2272Z" fill="#0087E6"/>
<path d="M96.8589 20.7503L95.5037 19.3209C95.4567 19.2629 95.3973 19.2161 95.3298 19.184C95.2624 19.1518 95.1886 19.1352 95.1139 19.1353C94.9877 19.1378 94.8667 19.1862 94.7736 19.2714C94.0486 19.9185 93.1093 20.2735 92.1375 20.2677C91.2956 20.2677 90.4882 19.9332 89.8929 19.3379C89.2976 18.7426 88.9631 17.9352 88.9631 17.0933C88.9631 16.2514 89.2976 15.4439 89.8929 14.8486C90.4882 14.2533 91.2956 13.9189 92.1375 13.9189C93.1088 13.9095 94.0486 14.2625 94.7736 14.9089C94.8654 14.9962 94.9872 15.0449 95.1139 15.0451C95.1886 15.0451 95.2624 15.0285 95.3298 14.9964C95.3973 14.9643 95.4567 14.9175 95.5037 14.8594V14.8594L96.8589 13.43C96.9473 13.3389 96.9962 13.2166 96.995 13.0897C96.9954 13.023 96.9825 12.9569 96.957 12.8953C96.9315 12.8336 96.8939 12.7777 96.8465 12.7308V12.7308C96.2382 12.1098 95.511 11.6177 94.7083 11.2838C93.9056 10.95 93.0439 10.7813 92.1746 10.7878C90.5406 10.839 88.9906 11.5242 87.8528 12.6982C86.7151 13.8722 86.0789 15.4429 86.0789 17.0778C86.0789 18.7127 86.7151 20.2834 87.8528 21.4574C88.9906 22.6314 90.5406 23.3166 92.1746 23.3678C93.0443 23.3795 93.9074 23.2157 94.7123 22.8861C95.5171 22.5565 96.2472 22.0679 96.8589 21.4496C96.9069 21.4031 96.9448 21.3472 96.9703 21.2855C96.9959 21.2238 97.0085 21.1575 97.0074 21.0907C97.0086 20.9637 96.9596 20.8415 96.8713 20.7503H96.8589Z" fill="#0087E6"/>
<path d="M16.4964 12.2871L16.487 12.287C16.7634 12.2852 17.0368 12.2296 17.2919 12.1232C17.55 12.0157 17.7843 11.8583 17.9816 11.6602C18.1788 11.4621 18.3351 11.227 18.4416 10.9685C18.548 10.71 18.6024 10.433 18.6018 10.1534V2.32385C18.6296 2.02937 18.5956 1.73233 18.502 1.45175C18.4083 1.17118 18.2571 0.913249 18.058 0.694488C17.859 0.475727 17.6164 0.300955 17.3458 0.181364C17.0753 0.0617734 16.7828 0 16.487 0C16.1912 0 15.8987 0.0617734 15.6281 0.181364C15.3576 0.300955 15.115 0.475727 14.9159 0.694488C14.7168 0.913249 14.5656 1.17118 14.472 1.45175C14.3784 1.73233 14.3444 2.02937 14.3721 2.32385V10.1534C14.3715 10.433 14.426 10.71 14.5324 10.9685C14.6388 11.227 14.7951 11.4621 14.9924 11.6602C15.1896 11.8583 15.424 12.0157 15.682 12.1232C15.9372 12.2296 16.2106 12.2852 16.487 12.287L16.4776 12.2871H16.4964Z" fill="#0087E6"/>
<path d="M11.5336 15.9105C11.4487 16.1766 11.3122 16.4233 11.1317 16.6365C10.9512 16.8497 10.7303 17.0251 10.4818 17.1526C10.2333 17.2801 9.96206 17.3573 9.68364 17.3796C9.40522 17.4019 9.12513 17.369 8.85947 17.2828L1.45284 14.8624C0.92089 14.6834 0.480938 14.3019 0.228318 13.8006C-0.0243026 13.2994 -0.0692419 12.7188 0.103238 12.1847C0.275717 11.6506 0.651722 11.2059 1.14977 10.9471C1.64783 10.6883 2.22781 10.6361 2.76404 10.802L10.1707 13.2223C10.7075 13.3986 11.1524 13.7806 11.408 14.2846C11.6635 14.7885 11.7086 15.3732 11.5336 15.9105Z" fill="#0087E6"/>
<path d="M21.8615 16.6379C21.6807 16.4244 21.544 16.1771 21.4592 15.9105C21.2854 15.3732 21.3312 14.7891 21.5865 14.2854C21.8419 13.7818 22.286 13.3996 22.8221 13.2223L30.2334 10.802C30.7696 10.6361 31.3496 10.6883 31.8477 10.9471C32.3457 11.2059 32.7217 11.6506 32.8942 12.1847C33.0667 12.7188 33.0218 13.2994 32.7691 13.8006C32.5165 14.3019 32.0766 14.6834 31.5446 14.8624L24.138 17.2828C23.872 17.3697 23.5915 17.4032 23.3125 17.3812C23.0336 17.3592 22.7618 17.2822 22.5127 17.1547C22.2637 17.0271 22.0424 16.8515 21.8615 16.6379Z" fill="#0087E6"/>
<path d="M6.34985 31.5744C5.89329 31.2399 5.58763 30.7383 5.49958 30.1792C5.41153 29.6201 5.54825 29.0488 5.87988 28.5902L10.4573 22.2786C10.6209 22.0526 10.8274 21.8612 11.0651 21.7152C11.3028 21.5692 11.567 21.4716 11.8425 21.428C12.118 21.3843 12.3994 21.3954 12.6706 21.4608C12.9418 21.5261 13.1974 21.6443 13.4228 21.8086C13.8794 22.1431 14.185 22.6447 14.2731 23.2038C14.3611 23.7629 14.2244 24.3342 13.8928 24.7929L9.32002 31.0998C9.15603 31.3259 8.94906 31.5174 8.71095 31.6635C8.47285 31.8095 8.20828 31.9071 7.9324 31.9508C7.65652 31.9944 7.37473 31.9832 7.10318 31.9179C6.83162 31.8525 6.57563 31.7342 6.34985 31.5697V31.5744Z" fill="#0087E6"/>
<path d="M27.4932 30.1792C27.4051 30.7383 27.0994 31.2399 26.6429 31.5744V31.5932C26.4175 31.7575 26.1619 31.8758 25.8907 31.9411C25.6195 32.0064 25.3381 32.0175 25.0626 31.9739C24.7871 31.9302 24.5229 31.8326 24.2852 31.6866C24.0475 31.5407 23.841 31.3492 23.6774 31.1233L19.1 24.7882C18.9352 24.5623 18.8165 24.3062 18.7507 24.0344C18.6849 23.7627 18.6733 23.4806 18.7165 23.2044C18.7597 22.9281 18.8569 22.6631 19.0025 22.4244C19.1481 22.1857 19.3394 21.9781 19.5652 21.8133C19.7911 21.6485 20.0473 21.5298 20.319 21.464C20.5908 21.3982 20.8728 21.3866 21.149 21.4298C21.4253 21.473 21.6903 21.5702 21.929 21.7158C22.1677 21.8615 22.3753 22.0527 22.5401 22.2786L27.1129 28.5902C27.4445 29.0488 27.5812 29.6201 27.4932 30.1792Z" fill="#0087E6"/>
</svg>
